PathFileType	4	(X/Y/Z)	3_coords_data.trc
DataRate	CameraRate	NumFrames	NumMarkers	Units	OrigDataRate	OrigDataStartFrame	OrigNumFrames
30.0	30.0	6	21	m	30.0	51	71
Frame#	Time	THUMB_TIP	THUMB_IP	THUMB_MCP	THUMB_CMC	INDEX_TIP	INDEX_DIP	INDEX_PIP	INDEX_MCP	MIDDLE_TIP	MIDDLE_DIP	MIDDLE_PIP	MIDDLE_MCP	RING_TIP	RING_DIP	RING_PIP	RING_MCP	PINKY_TIP	PINKY_DIP	PINKY_PIP	PINKY_MCP	WRIST
X1	Y1	Z1	X2	Y2	Z2	X3	Y3	Z3	X4	Y4	Z4	X5	Y5	Z5	X6	Y6	Z6	X7	Y7	Z7	X8	Y8	Z8	X9	Y9	Z9	X10	Y10	Z10	X11	Y11	Z11	X12	Y12	Z12	X13	Y13	Z13	X14	Y14	Z14	X15	Y15	Z15	X16	Y16	Z16	X17	Y17	Z17	X18	Y18	Z18	X19	Y19	Z19	X20	Y20	Z20	X21	Y21	Z21
50	1.6666666666666667	-0.08407759857177734	-0.08327300262451172	0.950926025390625	-0.10853600311279298	-0.08041919708251953	0.9569019775390625	-0.12719000244140624	-0.06695850372314453	0.9772470092773438	-0.12068399810791015	-0.040877399444580076	0.9991710205078125	-0.06024670028686523	-0.09283979797363281	0.9222379760742188	-0.07608879852294922	-0.0790458984375	0.918552001953125	-0.09470369720458985	-0.06342010116577149	0.9191480102539062	-0.12081099700927735	-0.040254600524902345	0.943010009765625	-0.06936669921875	-0.06251060104370117	0.9553989868164062	-0.06537650299072266	-0.05962570190429688	0.9341119995117187	-0.0798289031982422	-0.04413579940795898	0.9184569702148437	-0.10747100067138672	-0.020885200500488282	0.9415120239257813	-0.06502010345458985	-0.04298569869995117	0.9567750244140625	-0.05966469955444336	-0.03796039962768555	0.9386500244140625	-0.07049459838867188	-0.021989700317382812	0.9240689697265625	-0.0940344009399414	-0.007087510108947754	0.9489140014648437	-0.03726070022583008	-0.03271699905395508	0.94089697265625	-0.044662799835205075	-0.01692930030822754	0.9382449951171875	-0.057843799591064456	-0.0037465300559997557	0.9415640258789062	-0.08083550262451172	0.00303095006942749	0.9624500122070313	-0.1257770004272461	-0.006967010021209717	1.022469970703125
51	1.7	-0.07511190032958984	-0.07796489715576171	0.94814697265625	-0.09965979766845703	-0.07805130004882813	0.9557360229492188	-0.1179990005493164	-0.06647630310058594	0.9775910034179688	-0.11699099731445313	-0.040460498809814456	0.9999149780273437	-0.05167259979248047	-0.08379129791259765	0.923364990234375	-0.0690448989868164	-0.07188240051269532	0.918635009765625	-0.08947660064697266	-0.058763301849365235	0.9187849731445312	-0.11801399993896484	-0.039755199432373045	0.94356298828125	-0.060806198120117186	-0.05756539916992188	0.9504149780273438	-0.06020449829101562	-0.05204690170288086	0.9296400146484375	-0.07813449859619141	-0.037598800659179685	0.9166489868164063	-0.10766200256347656	-0.019078100204467773	0.9420679931640625	-0.060708198547363285	-0.03612540054321289	0.9548079833984375	-0.05738930130004883	-0.02951689910888672	0.9360989990234375	-0.07153279876708984	-0.014368000030517579	0.9228109741210937	-0.09564720153808594	-0.003866919994354248	0.949666015625	-0.03676150131225586	-0.022130300521850586	0.9402559814453125	-0.04596030044555664	-0.007313020229339599	0.9373300170898438	-0.06077700042724609	0.0043551898002624516	0.9405889892578125	-0.08336530303955078	0.007993410110473633	0.9624080200195313	-0.12518499755859375	-0.007735300064086914	1.0228599853515625
52	1.7333333333333334	-0.06711440277099609	-0.07259850311279296	0.9464509887695313	-0.09133200073242187	-0.07520490264892578	0.955323974609375	-0.10994400024414062	-0.06553240203857422	0.9781530151367187	-0.11264600372314452	-0.03982770156860352	1.0009000244140625	-0.04486840057373047	-0.0751083984375	0.9243359985351562	-0.06332519912719727	-0.06534310150146484	0.9188839721679688	-0.08509639739990234	-0.05461349868774414	0.91885302734375	-0.11499500274658203	-0.03925189971923828	0.9440579833984375	-0.05302170181274414	-0.052119998931884765	0.946052978515625	-0.05612689971923828	-0.045034000396728516	0.925906005859375	-0.07716799926757813	-0.03195770072937012	0.9154130249023438	-0.10729100036621093	-0.01766390037536621	0.9428280029296875	-0.056199100494384764	-0.029904399871826172	0.9520189819335938	-0.05580749893188477	-0.021962900161743164	0.934041015625	-0.07322319793701172	-0.008284669876098633	0.9219340209960938	-0.09743399810791016	-0.001226789951324463	0.9504710083007812	-0.036963600158691406	-0.012767399787902832	0.9390590209960937	-0.0480103988647461	0.0008500549793243401	0.936364013671875	-0.06416230010986328	0.010928899765014648	0.9400670166015626	-0.08614859771728516	0.01211769962310791	0.9623510131835937	-0.12483599853515626	-0.00803754997253418	1.0233400268554687
53	1.7666666666666666	-0.06121260070800781	-0.06760919952392579	0.9447960205078125	-0.08483660125732422	-0.07199949645996094	0.955166015625	-0.10298500061035157	-0.06351020050048828	0.9789420166015625	-0.10751100158691407	-0.03771390151977539	1.00202001953125	-0.03951279830932617	-0.06740850067138672	0.92539697265625	-0.05876869964599609	-0.059444099426269534	0.919135009765625	-0.081697998046875	-0.05092850112915039	0.9191640014648438	-0.1125	-0.038704299926757814	0.9451890258789063	-0.04657360076904297	-0.04599129867553711	0.94156298828125	-0.05340570068359375	-0.03841849899291992	0.9228109741210937	-0.07682209777832032	-0.0272362003326416	0.9143109741210937	-0.10714099884033203	-0.016452299118041993	0.9437789916992188	-0.05240079879760742	-0.02389109992980957	0.9490089721679688	-0.054990699768066406	-0.015522299766540527	0.9311909790039062	-0.07496309661865234	-0.003342849969863891	0.9211380004882812	-0.09897470092773437	0.000886105000972747	0.9509199829101562	-0.03794329833984375	-0.004514039993286133	0.9376939697265625	-0.050329399108886716	0.007852739810943603	0.935447021484375	-0.06757730102539063	0.016265100479125976	0.939697021484375	-0.08883719635009765	0.01547760009765625	0.9624199829101563	-0.124177001953125	-0.008046649932861328	1.02468994140625
54	1.8	-0.05652830123901367	-0.061007598876953124	0.9426420288085937	-0.07896800231933594	-0.06723919677734375	0.9538040161132812	-0.09691280364990235	-0.060324798583984374	0.9783690185546875	-0.10480799865722656	-0.035612598419189456	1.0023699951171876	-0.035341400146484375	-0.05907550048828125	0.9257589721679688	-0.05483819961547851	-0.05282389831542969	0.9192379760742188	-0.07857140350341797	-0.046419399261474606	0.9192670288085938	-0.11033699798583985	-0.037367599487304684	0.945208984375	-0.04249850082397461	-0.038645301818847656	0.9383839721679688	-0.05174860000610351	-0.031399599075317385	0.9206690063476562	-0.07678820037841796	-0.02217020034790039	0.9136710205078125	-0.10700099945068359	-0.014650400161743165	0.94425	-0.04977460098266601	-0.01775069999694824	0.9469429931640625	-0.05464680099487305	-0.008696579933166504	0.9293289794921875	-0.07650399780273437	0.001627210021018982	0.9209349975585938	-0.10038200378417969	0.0033354499340057368	0.951416015625	-0.0391593017578125	0.003183739900588989	0.9378170166015625	-0.05249670028686523	0.014383899688720702	0.9351699829101563	-0.0707041015625	0.02118519973754883	0.9398629760742188	-0.09135299682617187	0.018678800582885742	0.962968994140625	-0.12323300170898438	-0.007850599765777589	1.0249000244140625
55	1.8333333333333333	-0.05287490081787109	-0.05601050186157226	0.9402750244140625	-0.07500009918212891	-0.06323369979858398	0.95264501953125	-0.09196949768066406	-0.05693610000610352	0.9777919921875	-0.10211000061035157	-0.033476898193359375	1.0026500244140626	-0.03207490158081055	-0.05066939926147461	0.9250859985351563	-0.05186119842529297	-0.046012699127197264	0.9184569702148437	-0.07627310180664063	-0.041453601837158204	0.9188889770507812	-0.10802799987792969	-0.03557369995117188	0.94556298828125	-0.03922840118408203	-0.031028799057006836	0.9345380249023437	-0.05049810028076172	-0.02413730049133301	0.9180750122070312	-0.07683599853515626	-0.016860599517822265	0.9129869995117188	-0.10631099700927735	-0.012424400329589844	0.9446640014648438	-0.04738700103759766	-0.011052200317382813	0.9443159790039063	-0.05467229843139648	-0.001796020030975341	0.9279520263671875	-0.07817040252685546	0.006702229976654052	0.9209149780273438	-0.10143099975585937	0.0059582099914550785	0.9522020263671875	-0.04055619812011719	0.010844799995422363	0.9372059936523438	-0.05491109848022461	0.02094849967956543	0.9351610107421875	-0.07350170135498046	0.026056999206542968	0.940343994140625	-0.09336830139160156	0.021806499481201173	0.9634719848632812	-0.12225	-0.007648530006408691	1.025780029296875
